<?xml version="1.0" encoding="UTF-8"?>
<svg id="_레이어_1" data-name="레이어_1" xmlns="http://www.w3.org/2000/svg" viewBox="0 0 35 35">
  <defs>
    <style>
      .cls-1 {
        fill: #fff;
      }

      .cls-2 {
        fill: #e1e1e1;
      }

      .cls-3 {
        fill: none;
        stroke: #e1e1e1;
        stroke-linecap: round;
        stroke-miterlimit: 10;
        stroke-width: 2px;
      }
    </style>
  </defs>
  <g>
    <rect class="cls-1" x=".5" y=".5" width="34" height="34" rx="9.5" ry="9.5"/>
    <path class="cls-2" d="M25,1c5,0,9,4,9,9v15c0,5-4,9-9,9h-15c-5,0-9-4-9-9v-15C1,5,5,1,10,1h15M25,0h-15C4.5,0,0,4.5,0,10v15c0,5.5,4.5,10,10,10h15c5.5,0,10-4.5,10-10v-15c0-5.5-4.5-10-10-10h0Z"/>
  </g>
  <g>
    <line class="cls-3" x1="18.9" y1="9.9" x2="26.5" y2="17.5"/>
    <line class="cls-3" x1="26.5" y1="17.5" x2="18.9" y2="25.1"/>
    <line class="cls-3" x1="25.1" y1="17.5" x2="8.5" y2="17.5"/>
  </g>
</svg>