<?xml version="1.0" encoding="UTF-8"?>
<svg id="_레이어_2" data-name="레이어_2" xmlns="http://www.w3.org/2000/svg" viewBox="0 0 15 15">
  <defs>
    <style>
      .cls-1 {
        fill: #e1e1e1;
      }
    </style>
  </defs>
  <g id="_레이어_9" data-name="레이어_9">
    <path class="cls-1" d="M13.5,6.5v7H1.5v-7h12M14,5H1c-.5,0-1,.4-1,1v8c0,.5.5,1,1,1h13c.5,0,1-.5,1-1V6c0-.6-.5-1-1-1h0Z"/>
    <path class="cls-1" d="M9,1.5c.8,0,1.5.7,1.5,1.5v2h-6.1v-2c0-.8.7-1.5,1.5-1.5h3.1M9,0h-3.1c-1.7,0-3,1.3-3,3v3.5h9.1v-3.5c0-1.7-1.3-3-3-3h0Z"/>
    <g>
      <path class="cls-1" d="M7.5,8.2c-.5,0-.9.4-.9.9s.4.9.9.9.9-.4.9-.9-.4-.9-.9-.9h0Z"/>
      <path class="cls-1" d="M7.5,9.4c-.2,0-.4.2-.4.4v1.6c0,.2.2.4.4.4s.4-.2.4-.4v-1.6c0-.2-.2-.4-.4-.4h0Z"/>
    </g>
  </g>
</svg>