<?xml version="1.0" encoding="UTF-8"?>
<svg id="_레이어_24" data-name="레이어_24" xmlns="http://www.w3.org/2000/svg" viewBox="0 0 20 20">
  <defs>
    <style>
      .cls-1 {
        fill: #fff;
      }

      .cls-2 {
        fill: none;
        stroke: #fff;
        stroke-linecap: round;
        stroke-linejoin: round;
        stroke-width: 2px;
      }
    </style>
  </defs>
  <path class="cls-2" d="M1.1,8.8l7.2-6c1-.8,2.5-.8,3.5,0l7.2,6"/>
  <path class="cls-1" d="M14.6,2.1v-.9s0-.6,1.4-.6,1.3.7,1.3.7v3.1l-2.8-2.3Z"/>
  <path class="cls-1" d="M18.1,16v-4.3c0-.4-.2-.7-.5-1l-7.6-6.4h0s0,0,0,0l-7.6,6.4c-.3.2-.5.6-.5,1v4.3s-.2,3.4,3.4,3.4h1.9v-5.5c0-.7.6-1.3,1.3-1.3h3.1c.7,0,1.3.6,1.3,1.3v5.5h1.9c3.6,0,3.4-3.4,3.4-3.4Z"/>
</svg>