<?xml version="1.0" encoding="UTF-8"?>
<svg id="_레이어_2" data-name="레이어_2" xmlns="http://www.w3.org/2000/svg" viewBox="0 0 38 38">
  <defs>
    <style>
      .cls-1 {
        fill: #9ae2cc;
      }
    </style>
  </defs>
  <g id="_레이어_2-2" data-name="레이어_2">
    <path class="cls-1" d="M38,12c0-6.6-5.4-12-12-12s-5,.8-7,2.3c-2-1.4-4.4-2.3-7-2.3C5.4,0,0,5.4,0,12s.8,5,2.3,7c-1.4,2-2.3,4.4-2.3,7,0,6.6,5.4,12,12,12s5-.8,7-2.3c2,1.4,4.4,2.3,7,2.3,6.6,0,12-5.4,12-12s-.8-5-2.3-7c1.4-2,2.3-4.4,2.3-7Z"/>
  </g>
</svg>