<?xml version="1.0" encoding="UTF-8"?>
<svg id="_레이어_2" data-name="레이어_2" xmlns="http://www.w3.org/2000/svg" viewBox="0 0 15 10">
  <defs>
    <style>
      .cls-1 {
        fill: #e1e1e1;
      }
    </style>
  </defs>
  <g id="_레이어_12" data-name="레이어_12">
    <path class="cls-1" d="M7.5,1.5c2.7,0,4.8,2.6,5.7,3.9-1,1.1-3,3.1-5.7,3.1s-4.7-2-5.7-3.1c.9-1.3,2.9-3.9,5.7-3.9M7.5,0C2.8,0,0,5.5,0,5.5c0,0,3,4.5,7.5,4.5s7.5-4.5,7.5-4.5c0,0-2.8-5.5-7.5-5.5h0Z"/>
    <path class="cls-1" d="M7.5,3.2c1,0,1.8.8,1.8,1.8s-.8,1.8-1.8,1.8-1.8-.8-1.8-1.8.8-1.8,1.8-1.8M7.5,2.2c-1.5,0-2.8,1.2-2.8,2.8s1.2,2.8,2.8,2.8,2.8-1.2,2.8-2.8-1.2-2.8-2.8-2.8h0Z"/>
  </g>
</svg>