<?xml version="1.0" encoding="UTF-8"?>
<svg id="_레이어_20" data-name="레이어_20" xmlns="http://www.w3.org/2000/svg" viewBox="0 0 15 15">
  <defs>
    <style>
      .cls-1 {
        fill: none;
        stroke: #fe8a8b;
        stroke-linecap: round;
        stroke-miterlimit: 10;
        stroke-width: 1.5px;
      }

      .cls-2 {
        fill: #fe8a8b;
      }
    </style>
  </defs>
  <path class="cls-2" d="M7.5,1.5c3.3,0,6,2.7,6,6s-2.7,6-6,6S1.5,10.8,1.5,7.5,4.2,1.5,7.5,1.5M7.5,0C3.4,0,0,3.4,0,7.5s3.4,7.5,7.5,7.5,7.5-3.4,7.5-7.5S11.6,0,7.5,0h0Z"/>
  <g>
    <path class="cls-2" d="M5.6,4.9c-.4,0-.8.3-.8.8s.3.8.8.8.8-.3.8-.8-.3-.8-.8-.8h0Z"/>
    <path class="cls-2" d="M9.4,4.9c-.4,0-.8.3-.8.8s.3.8.8.8.8-.3.8-.8-.3-.8-.8-.8h0Z"/>
  </g>
  <path class="cls-1" d="M4.2,8.6s.4,2.2,3.1,2.2,3.4-2.2,3.4-2.2"/>
</svg>