<?xml version="1.0" encoding="UTF-8"?>
<svg id="_레이어_15" data-name="레이어_15" xmlns="http://www.w3.org/2000/svg" viewBox="0 0 20 20">
  <defs>
    <style>
      .cls-1 {
        fill: #61b3ff;
      }
    </style>
  </defs>
  <path class="cls-1" d="M10,1.4v1.5c.1,0,3.4,0,4.5,2.7.4,1,.6,2.4.7,3.5.2,1.6.3,3.1,1.3,3.9,0,0,.2.2.3.2.9.7,1.1.8.8,2,0,.3-.9.5-1.5.5h0s0,0,0,0h-6.1c0,0-6.2,0-6.2,0h0s0,0,0,0c-.5,0-1.3-.2-1.4-.5-.3-1.1-.1-1.3.8-2,0,0,.2-.2.3-.2,1-.8,1.1-2.2,1.3-3.9.1-1.2.3-2.5.7-3.5,1.1-2.7,4.4-2.7,4.6-2.7v-1.5M10,1.4s0,0,0,0c0,0,0,0,0,0-.3,0-4.4,0-5.9,3.6-1.1,2.6-.6,6-1.6,6.8-1.1.9-2.2,1.5-1.5,3.8.4,1.5,2.5,1.6,2.9,1.6s0,0,0,0h6.2c0,0,6.1,0,6.1,0,0,0,0,0,0,0,.4,0,2.5,0,2.9-1.6.7-2.3-.5-2.9-1.5-3.8-1-.8-.5-4.2-1.6-6.8-1.5-3.6-5.6-3.6-5.9-3.6h0Z"/>
  <path class="cls-1" d="M12,17.2c-.3.7-.9,1.3-2,1.3s-1.6-.6-1.8-1.3h3.8M13.8,15.7h-7.5s0,4.3,3.6,4.3,3.8-4.3,3.8-4.3h0Z"/>
  <rect class="cls-1" x="8.5" y="0" width="3" height="2.4" rx="1.2" ry="1.2"/>
</svg>