<?xml version="1.0" encoding="UTF-8"?>
<svg id="_레이어_1" data-name="레이어_1" xmlns="http://www.w3.org/2000/svg" viewBox="0 0 20 20">
  <defs>
    <style>
      .cls-1 {
        fill: #fff;
      }
    </style>
  </defs>
  <path class="cls-1" d="M17,4.5c.8,0,1.5.7,1.5,1.5v11c0,.8-.7,1.5-1.5,1.5H3c-.8,0-1.5-.7-1.5-1.5V6c0-.8.7-1.5,1.5-1.5h14M17,3H3c-1.7,0-3,1.3-3,3v11c0,1.7,1.3,3,3,3h14c1.7,0,3-1.3,3-3V6c0-1.7-1.3-3-3-3h0Z"/>
  <path class="cls-1" d="M3.4,3h13.2c1.4,0,2.5,1.1,2.5,2.5v.8c0,.4-.3.7-.7.7H1.5c-.4,0-.7-.3-.7-.7v-.8c0-1.4,1.1-2.5,2.5-2.5Z"/>
  <path class="cls-1" d="M10.3,14.8l1.5,1.1c.4.3,1-.1.9-.6l-.6-1.8c0-.2,0-.4.2-.5l1.5-1.1c.4-.3.2-1-.3-1h-1.9c-.2,0-.3-.1-.4-.3l-.6-1.8c-.2-.5-.9-.5-1.1,0l-.6,1.8c0,.2-.2.3-.4.3h-1.9c-.5,0-.8.7-.3,1l1.5,1.1c.2.1.2.3.2.5l-.6,1.8c-.2.5.4.9.9.6l1.5-1.1c.2-.1.4-.1.5,0Z"/>
  <g>
    <rect class="cls-1" x="4.4" y="0" width="2.3" height="5.4" rx="1.2" ry="1.2"/>
    <rect class="cls-1" x="13.3" y="0" width="2.3" height="5.4" rx="1.2" ry="1.2" transform="translate(28.9 5.4) rotate(-180)"/>
  </g>
</svg>