<?xml version="1.0" encoding="UTF-8"?>
<svg id="_레이어_4" data-name="레이어_4" xmlns="http://www.w3.org/2000/svg" viewBox="0 0 39 38">
  <defs>
    <style>
      .cls-1 {
        fill: #ffd7e9;
      }
    </style>
  </defs>
  <path class="cls-1" d="M38.5,14c-1.4-4.3-5.8-6.8-10.2-5.8C28.1,3.6,24.3,0,19.7,0s-8.3,3.5-8.7,7.9C6.5,6.7,1.9,9.2.5,13.6c-1.4,4.3.7,8.9,4.8,10.7-2.5,3.9-1.6,9,2.2,11.8,3.7,2.7,8.7,2.1,11.6-1.3,2.9,3.6,8.1,4.3,11.9,1.5,3.7-2.7,4.6-7.6,2.4-11.5,4.3-1.7,6.6-6.4,5.1-10.8Z"/>
</svg>