<?xml version="1.0" encoding="UTF-8"?>
<svg id="_레이어_1" data-name="레이어_1" xmlns="http://www.w3.org/2000/svg" xmlns:xlink="http://www.w3.org/1999/xlink" viewBox="0 0 75 75">
  <defs>
    <style>
      .cls-1 {
        fill: #ffd05a;
      }

      .cls-2 {
        fill: #1fd4a2;
      }

      .cls-3 {
        fill: #fff;
      }

      .cls-4 {
        stroke: #f1cc60;
      }

      .cls-4, .cls-5, .cls-6, .cls-7 {
        fill: none;
      }

      .cls-4, .cls-6, .cls-7 {
        stroke-linecap: round;
        stroke-miterlimit: 10;
      }

      .cls-4, .cls-7 {
        stroke-width: 3px;
      }

      .cls-8 {
        fill: #f6cb5a;
      }

      .cls-9 {
        fill: #fff0b3;
      }

      .cls-10 {
        fill: #f88415;
      }

      .cls-11 {
        fill: #61b3ff;
      }

      .cls-6 {
        stroke: #333;
        stroke-width: .5px;
      }

      .cls-12 {
        fill: #b3ebff;
      }

      .cls-13 {
        fill: #80513f;
      }

      .cls-7 {
        stroke: #f88415;
      }

      .cls-14 {
        clip-path: url(#clippath);
      }

      .cls-15 {
        opacity: .5;
      }
    </style>
    <clipPath id="clippath">
      <circle class="cls-5" cx="37.5" cy="37.5" r="37.5"/>
    </clipPath>
  </defs>
  <g class="cls-14">
    <g>
      <rect class="cls-12" width="75" height="75"/>
      <path class="cls-2" d="M75,52.5c-7-8-23.3-13.6-42.3-13.6s-24.4,2.5-32.7,6.7v29.4h69.1c2.4-1.5,4.4-3.1,5.9-4.9v-17.6Z"/>
      <g>
        <rect class="cls-1" x="6.7" y="31.6" width="39.9" height="16.1"/>
        <g>
          <path class="cls-10" d="M45.5,18.7c-.3-1.1-1.3-1.8-2.4-1.8H10.2c-1.1,0-2.1.7-2.4,1.8l-2.8,9.7c-.5,1.6.7,3.3,2.4,3.3h38.6c1.7,0,2.9-1.6,2.4-3.3l-2.8-9.7Z"/>
          <g>
            <rect class="cls-9" x="17.2" y="24.9" width="19" height="22.8"/>
            <polygon class="cls-9" points="17.1 24.9 26.7 15.5 36.2 24.9 17.1 24.9"/>
          </g>
          <g>
            <line class="cls-4" x1="16.1" y1="24.9" x2="26.7" y2="14.4"/>
            <line class="cls-4" x1="37.2" y1="24.9" x2="26.7" y2="14.4"/>
          </g>
          <path class="cls-10" d="M25.1,34.8h3.1c1.1,0,1.9.9,1.9,1.9v11h-7v-11c0-1.1.9-1.9,1.9-1.9Z"/>
          <g>
            <rect class="cls-11" x="23.3" y="23.8" width="6.8" height="6.2" rx="3.1" ry="3.1"/>
            <line class="cls-6" x1="26.7" y1="26.9" x2="26.7" y2="24.9"/>
            <line class="cls-6" x1="26.7" y1="26.9" x2="27.3" y2="26.2"/>
          </g>
          <g>
            <rect class="cls-11" x="38.2" y="35.3" width="5.7" height="7.6" rx="1.9" ry="1.9"/>
            <rect class="cls-11" x="9.4" y="35.3" width="5.7" height="7.6" rx="1.9" ry="1.9"/>
          </g>
          <line class="cls-7" x1="5.3" y1="48.7" x2="48.1" y2="48.7"/>
        </g>
      </g>
      <g>
        <rect class="cls-8" x="33.3" y="39.6" width="53" height="26.5" rx="6.6" ry="6.6"/>
        <g>
          <g>
            <circle class="cls-13" cx="47.6" cy="64.9" r="5"/>
            <circle class="cls-3" cx="47.6" cy="64.9" r="2.4"/>
          </g>
          <g>
            <circle class="cls-13" cx="72.1" cy="64.9" r="5"/>
            <circle class="cls-3" cx="72.1" cy="64.9" r="2.4"/>
          </g>
        </g>
        <rect class="cls-11" x="38.5" y="45" width="7.9" height="10.6" rx="2.6" ry="2.6"/>
        <rect class="cls-11" x="63.6" y="45" width="7.9" height="10.6" rx="2.6" ry="2.6"/>
        <rect class="cls-11" x="54.3" y="45" width="7.9" height="10.6" rx="2.6" ry="2.6"/>
        <rect class="cls-11" x="72.9" y="45" width="7.9" height="10.6" rx="2.6" ry="2.6"/>
      </g>
      <g>
        <path class="cls-1" d="M75.2.4C75,.3,74.9.1,74.7,0h-16.5c-2.6,2.3-4.3,5.6-4.3,9.4,0,6.9,5.6,12.5,12.5,12.5s6.5-1.4,8.7-3.6V.4Z"/>
        <path class="cls-1" d="M52.3,9.4c0-.6-.4-1-1-1h-2.8c-.6,0-1,.4-1,1s.4,1,1,1h2.8c.6,0,1-.4,1-1Z"/>
        <path class="cls-1" d="M52.8,16.1l-2.4,1.4c-.5.3-.6.9-.4,1.4.2.3.5.5.9.5s.3,0,.5-.1l2.4-1.4c.5-.3.6-.9.4-1.4-.3-.5-.9-.6-1.4-.4Z"/>
        <path class="cls-1" d="M59.4,21.7c-.5-.3-1.1-.1-1.4.4l-1.4,2.4c-.3.5-.1,1.1.4,1.4.2,0,.3.1.5.1.3,0,.7-.2.9-.5l1.4-2.4c.3-.5.1-1.1-.4-1.4Z"/>
        <path class="cls-1" d="M66.5,23.6c-.6,0-1,.4-1,1v2.8c0,.6.4,1,1,1s1-.4,1-1v-2.8c0-.6-.4-1-1-1Z"/>
        <path class="cls-1" d="M50.4,1.3l2.4,1.4c.2,0,.3.1.5.1.3,0,.7-.2.9-.5.3-.5.1-1.1-.4-1.4L52.2,0h-2.2c-.2.5,0,1,.4,1.3Z"/>
        <path class="cls-1" d="M75,22.2v-.2c-.4-.5-1-.6-1.5-.4-.5.3-.6.9-.4,1.4l1.4,2.4c.1.2.3.3.4.4v-3.7Z"/>
      </g>
    </g>
  </g>
  <g class="cls-15">
    <circle class="cls-3" cx="37.5" cy="37.5" r="37.5"/>
  </g>
  <path class="cls-10" d="M37.5,3c19,0,34.5,15.5,34.5,34.5s-15.5,34.5-34.5,34.5S3,56.5,3,37.5,18.5,3,37.5,3M37.5,0C16.8,0,0,16.8,0,37.5s16.8,37.5,37.5,37.5,37.5-16.8,37.5-37.5S58.2,0,37.5,0h0Z"/>
  <g>
    <g>
      <path class="cls-3" d="M29.4,47.3c-1.7,0-3.1-.2-4.1-.5-1.1-.4-1.9-.9-2.4-1.5-.5-.7-.8-1.4-.8-2.3s.1-1.2.4-1.7c.2-.4.4-.7.7-1h-.4c-.7,0-1.4-.3-1.9-.8-.5-.5-.7-1.2-.7-2s.4-1.6.8-2c.5-.4,1.1-.7,1.8-.7-.3-.4-.4-.9-.4-1.5,0-.6,0-1.1.3-1.5,0,0,0-.1,0-.1-.3-.4-.5-.9-.5-1.4s.2-1.2.7-1.7c.4-.4,1.1-.7,1.8-.7h9c.9,0,1.5.3,1.9.8.4.4.6,1,.6,1.6s-.2,1.2-.5,1.6c0,0,0,0,0,0,.3.3.7.9.7,1.8s0,.8-.2,1.1c.6,0,1.1.3,1.6.7.5.5.7,1.1.7,1.9s-.2,1.4-.7,1.9c-.5.6-1.1.8-1.9.8h-.3c.3.3.6.6.7,1,.2.5.4,1.1.4,1.8s-.3,1.6-.8,2.3c-.5.7-1.3,1.2-2.4,1.6-1,.3-2.4.5-4.1.5Z"/>
      <path class="cls-10" d="M33.8,28.9c.5,0,.9.1,1.2.4.2.3.3.6.3,1s-.1.7-.3,1c-.2.3-.6.4-1.2.4h-7.4c-.4,0-.5,0-.4.2,0,.1.2.2.3.2.1,0,.4,0,.7,0h6.7c.7,0,1.1.1,1.4.4.3.3.4.6.4,1.1s-.1.9-.4,1.1c-.3.3-.7.4-1.4.4h-7.8c-.4,0-.9,0-1.2-.2-.4-.1-.7-.4-.9-.6-.2-.3-.4-.6-.4-1.1,0-.4,0-.8.2-1,.1-.3.3-.5.5-.6.2-.1.4-.2.5-.2h0c-.4,0-.7-.1-.9-.4-.2-.2-.4-.5-.4-.9s.1-.7.4-1c.3-.3.6-.4,1.1-.4h9M35.9,35.8c.5,0,.8.1,1.1.5.3.3.4.7.4,1.2s-.1.9-.4,1.3c-.3.3-.7.5-1.1.5h-13.2c-.5,0-.8-.2-1.1-.5-.3-.3-.5-.8-.5-1.3s.2-.9.5-1.2c.3-.3.7-.4,1.2-.4h13.1M29.4,39.8c1.3,0,2.3,0,3.1.2.8.1,1.5.4,1.9.6.5.3.8.6,1,1,.2.4.3.8.3,1.3s-.2,1.2-.6,1.7c-.4.5-1,.9-1.9,1.2-.9.3-2.2.5-3.8.5s-2.9-.2-3.8-.5c-.9-.3-1.6-.7-2-1.2-.4-.5-.6-1.1-.6-1.7s0-.9.3-1.3c.2-.4.5-.7,1-1,.5-.3,1.1-.5,1.9-.6.8-.1,1.9-.2,3.2-.2M29.2,42.2c1.1,0,1.8,0,2.2-.1.4,0,.6-.2.6-.4s-.2-.4-.6-.4c-.4,0-1.1-.1-2.2-.1s-1.3,0-1.7,0c-.4,0-.6,0-.8.2-.1,0-.2.2-.2.3s0,.2.2.3c.1,0,.4.1.8.2.4,0,.9,0,1.7,0M33.8,26.9h-9c-1.3,0-2.1.5-2.6,1-.6.6-1,1.5-1,2.4s.1,1,.3,1.5c-.2.5-.3,1.1-.3,1.7,0,.2,0,.5,0,.7-.4.2-.8.4-1.1.7-.5.5-1.1,1.3-1.1,2.7s.4,2,1,2.7c.4.4.8.7,1.3.9-.2.6-.4,1.3-.4,2,0,1.1.3,2,1,2.9.6.8,1.6,1.5,2.9,1.9,1.1.4,2.6.5,4.4.5s3.3-.2,4.4-.5c1.3-.4,2.3-1.1,2.9-1.9.6-.9,1-1.8,1-2.9s-.1-1.4-.4-2c.5-.2.9-.5,1.2-.9.6-.7,1-1.6,1-2.6s-.6-2.2-1-2.6c-.3-.3-.7-.6-1.1-.7,0-.1,0-.3,0-.4,0-.8-.2-1.4-.5-1.9.2-.5.3-1,.3-1.5,0-.8-.3-1.6-.8-2.3-.4-.5-1.2-1.1-2.7-1.1h0Z"/>
    </g>
    <g>
      <path class="cls-3" d="M44.4,47.3c-.9,0-1.7-.1-2.4-.3-.8-.3-1.5-.7-1.9-1.5-.4-.7-.5-1.5-.5-2.6,0-.9.3-1.6.7-2.1,0,0,0,0,0,0-.8,0-1.3-.4-1.8-.8-.5-.5-.7-1.2-.7-2,0-1.1.5-1.9,1.4-2.3-.3-.3-.5-.7-.6-1.1-.3-1.3,0-2.1.3-2.6,0,0,0,0,0-.1-.2-.3-.3-.7-.3-1.3s.2-1.5,1.5-2.1c.8-.4,2-.6,3.6-.6s1.9.1,2.7.4c.9.3,1.6.8,2.1,1.5,0,0,0,0,0,.1.1-.6.4-1,.8-1.4.5-.5,1.3-.8,2.2-.8s1.8.5,2.1.8c.5.5.8,1.2.8,2.1v9.2c0,.8-.3,1.5-.9,2,0,0-.1.1-.2.2,0,0,0,0,0,0,.6.5.9,1.3.9,2.3s-.3,1.7-.9,2.2c-.5.5-1.3.7-2.1.7h-7.4ZM46.8,41.4c-.1-.1-.2-.3-.3-.4,0,.2-.2.3-.3.4h.5ZM48.6,35.5c.1,0,.2,0,.3.1,0,0,0,0,0,0v-.6c-.1.1-.2.3-.4.4Z"/>
      <path class="cls-10" d="M51.9,28.7c.6,0,1.1.2,1.4.5.3.4.5.8.5,1.4v9.2c0,.5-.2,1-.5,1.3-.4.3-.8.5-1.4.5s-1.3-.2-1.6-.7c-.2,0-.4.2-.6.2-.2,0-.4.1-.6.1,0,0-.2,0-.3,0-.3,0-.6,0-.9-.2-.4-.2-.6-.5-.7-1,0-.2,0-.3,0-.5-.2,0-.5,0-.7,0-.3,0-.5,0-.8,0,0,.5-.1,1-.5,1.3-.4.3-.9.5-1.5.5,0,0,.1.1.1.2,0,0,0,.2,0,.3,0,.1,0,.3.2.3,0,0,.3.1.6.1h7c.6,0,1.1.2,1.5.5.4.3.5.8.5,1.5s-.2,1.2-.5,1.5c-.4.3-.9.5-1.5.5h-7.4c-.8,0-1.5,0-2.1-.3-.6-.2-1-.5-1.3-1-.3-.5-.4-1.2-.3-2.1,0-.7.2-1.2.5-1.6.3-.3.7-.5,1.2-.5-.2-.3-.4-.6-.4-.9v-.3h-1.2c-.6,0-1.1-.2-1.4-.6-.3-.3-.4-.8-.4-1.3,0-1.1.6-1.6,1.8-1.6s.1,0,.2,0c.4,0,.8,0,1.3,0s1.1,0,1.7,0c.6,0,1.2,0,1.7,0,.6,0,1,0,1.4,0,0,0,0,0,.1,0,.4,0,.8,0,1.1.2.3.2.5.5.6,1.1,0,.3,0,.5,0,.7.2,0,.4,0,.5,0,.1,0,.3,0,.4,0v-7.5c0-.5.2-1,.5-1.3.4-.4.8-.5,1.5-.5M44.1,28.9c.9,0,1.7.1,2.4.4s1.2.6,1.6,1.1c.4.5.6,1.2.6,2,0,1.2-.4,2.1-1.1,2.6-.8.6-1.9.8-3.5.8s-1.4,0-2-.1c-.6,0-1.1-.2-1.5-.5-.4-.2-.7-.6-.8-1.1-.2-.7-.1-1.3.2-1.7.3-.4.7-.7,1.2-.7h0c-.3,0-.6-.2-.9-.4-.2-.2-.4-.5-.4-.9s.3-.9,1-1.2c.7-.3,1.7-.5,3.2-.5M43.4,32.5c.8,0,1.2,0,1.5,0,.2,0,.3-.2.3-.4s-.1-.3-.3-.4c-.2,0-.7,0-1.5,0s-1.2,0-1.5,0c-.2,0-.3.2-.3.4s.1.3.3.4c.2,0,.7,0,1.5,0M51.9,26.7c-1.4,0-2.3.6-2.9,1.1-.1.1-.3.3-.4.4-.5-.3-1-.6-1.5-.8-.9-.3-1.9-.5-3.1-.5-1.8,0-3.1.2-4.1.7-1.9.9-2.1,2.4-2.1,3s0,.8.2,1.2c-.4.7-.6,1.7-.3,3,0,.2.1.4.2.6-.6.6-1,1.5-1,2.5,0,1.4.5,2.3,1,2.7.3.3.6.6,1,.7-.2.4-.2.9-.3,1.5,0,1.3,0,2.4.6,3.2.5.9,1.4,1.6,2.4,1.9.8.2,1.7.4,2.7.4h7.4c1.1,0,2.1-.3,2.8-1,.6-.5,1.2-1.4,1.2-3s-.3-1.8-.6-2.3c.5-.6.7-1.4.7-2.2v-9.2c0-1.1-.4-2.1-1.1-2.8-.5-.5-1.4-1.1-2.8-1.1h0Z"/>
    </g>
  </g>
</svg>