<?xml version="1.0" encoding="UTF-8"?>
<svg id="_레이어_1" data-name="레이어_1" xmlns="http://www.w3.org/2000/svg" xmlns:xlink="http://www.w3.org/1999/xlink" viewBox="0 0 75 75">
  <defs>
    <style>
      .cls-1 {
        fill: #ffd05a;
      }

      .cls-2 {
        stroke: #ffcfcf;
      }

      .cls-2, .cls-3, .cls-4 {
        fill: none;
      }

      .cls-2, .cls-4 {
        stroke-linecap: round;
        stroke-miterlimit: 10;
        stroke-width: 3px;
      }

      .cls-5 {
        fill: #1fd4a2;
      }

      .cls-6 {
        fill: #fff;
      }

      .cls-7 {
        fill: #009c7d;
      }

      .cls-8 {
        fill: #f6cb5a;
      }

      .cls-9 {
        fill: #f68e8d;
      }

      .cls-10 {
        fill: #ffe6e6;
      }

      .cls-11 {
        fill: #61b3ff;
      }

      .cls-4 {
        stroke: #f68e8d;
      }

      .cls-12 {
        fill: #80513f;
      }

      .cls-13 {
        clip-path: url(#clippath);
      }

      .cls-14 {
        fill: #fff0c0;
      }

      .cls-15 {
        opacity: .5;
      }

      .cls-16 {
        fill: #ffcfcf;
      }
    </style>
    <clipPath id="clippath">
      <circle class="cls-3" cx="37.5" cy="37.5" r="37.5"/>
    </clipPath>
  </defs>
  <g class="cls-13">
    <g>
      <rect class="cls-14" x="0" y="0" width="75" height="75"/>
      <path class="cls-5" d="M0,52.5c7-8,23.3-13.6,42.3-13.6,12.8,0,24.4,2.5,32.7,6.7v29.4H5.9C3.5,73.5,1.5,71.9,0,70.1v-17.6Z"/>
      <g>
        <rect class="cls-16" x="28.6" y="31.6" width="39.9" height="16.1"/>
        <g>
          <path class="cls-9" d="M67.3,18.7c-.3-1.1-1.3-1.8-2.4-1.8h-32.9c-1.1,0-2.1.7-2.4,1.8l-2.8,9.7c-.5,1.6.7,3.3,2.4,3.3h38.6c1.7,0,2.9-1.6,2.4-3.3l-2.8-9.7Z"/>
          <g>
            <rect class="cls-10" x="39" y="24.9" width="19" height="22.8"/>
            <polygon class="cls-10" points="38.9 24.9 48.5 15.5 58 24.9 38.9 24.9"/>
          </g>
          <g>
            <line class="cls-2" x1="37.9" y1="24.9" x2="48.5" y2="14.4"/>
            <line class="cls-2" x1="59.1" y1="24.9" x2="48.5" y2="14.4"/>
          </g>
          <path class="cls-9" d="M46.9,34.8h3.1c1.1,0,1.9.9,1.9,1.9v11h-7v-11c0-1.1.9-1.9,1.9-1.9Z"/>
          <g>
            <path class="cls-9" d="M46.1,25.3c-1.2.7-1,2.6-.2,3.3.7.6,2.6,1.9,2.6,1.9v-4s-.9-2-2.4-1.2Z"/>
            <path class="cls-9" d="M50.9,25.3c-1.5-.8-2.4,1.2-2.4,1.2v4s1.9-1.2,2.6-1.9c.8-.8,1-2.7-.2-3.3Z"/>
          </g>
          <g>
            <rect class="cls-11" x="60" y="35.3" width="5.7" height="7.6" rx="1.9" ry="1.9"/>
            <rect class="cls-11" x="31.2" y="35.3" width="5.7" height="7.6" rx="1.9" ry="1.9"/>
          </g>
          <line class="cls-4" x1="27.1" y1="48.7" x2="69.9" y2="48.7"/>
        </g>
      </g>
      <g>
        <rect class="cls-8" x="-11.4" y="39.6" width="53" height="26.5" rx="6.6" ry="6.6" transform="translate(30.2 105.8) rotate(-180)"/>
        <g>
          <g>
            <circle class="cls-12" cx="27.4" cy="64.9" r="5"/>
            <circle class="cls-6" cx="27.4" cy="64.9" r="2.4"/>
          </g>
          <g>
            <circle class="cls-12" cx="2.9" cy="64.9" r="5"/>
            <circle class="cls-6" cx="2.9" cy="64.9" r="2.4"/>
          </g>
        </g>
        <rect class="cls-11" x="28.5" y="45" width="7.9" height="10.6" rx="2.6" ry="2.6" transform="translate(64.9 100.6) rotate(-180)"/>
        <rect class="cls-11" x="3.4" y="45" width="7.9" height="10.6" rx="2.6" ry="2.6" transform="translate(14.7 100.6) rotate(-180)"/>
        <rect class="cls-11" x="12.7" y="45" width="7.9" height="10.6" rx="2.6" ry="2.6" transform="translate(33.3 100.6) rotate(-180)"/>
        <rect class="cls-11" x="-5.9" y="45" width="7.9" height="10.6" rx="2.6" ry="2.6" transform="translate(-3.8 100.6) rotate(-180)"/>
      </g>
      <g>
        <path class="cls-1" d="M0,.4c.2-.2.3-.3.5-.4h16.5c2.6,2.3,4.3,5.6,4.3,9.4,0,6.9-5.6,12.5-12.5,12.5S2.3,20.5,0,18.3V.4Z"/>
        <path class="cls-1" d="M22.9,9.4c0-.6.4-1,1-1h2.8c.6,0,1,.4,1,1s-.4,1-1,1h-2.8c-.6,0-1-.4-1-1Z"/>
        <path class="cls-1" d="M22.4,16.1l2.4,1.4c.5.3.6.9.4,1.4-.2.3-.5.5-.9.5s-.3,0-.5-.1l-2.4-1.4c-.5-.3-.6-.9-.4-1.4.3-.5.9-.6,1.4-.4Z"/>
        <path class="cls-1" d="M15.8,21.7c.5-.3,1.1-.1,1.4.4l1.4,2.4c.3.5.1,1.1-.4,1.4-.2,0-.3.1-.5.1-.3,0-.7-.2-.9-.5l-1.4-2.4c-.3-.5-.1-1.1.4-1.4Z"/>
        <path class="cls-1" d="M8.7,23.6c.6,0,1,.4,1,1v2.8c0,.6-.4,1-1,1s-1-.4-1-1v-2.8c0-.6.4-1,1-1Z"/>
        <path class="cls-1" d="M24.8,1.3l-2.4,1.4c-.2,0-.3.1-.5.1-.3,0-.7-.2-.9-.5-.3-.5-.1-1.1.4-1.4L23,0h2.2c.2.5,0,1-.4,1.3Z"/>
        <path class="cls-1" d="M.2,22.2v-.2c.4-.5,1-.6,1.5-.4.5.3.6.9.4,1.4l-1.4,2.4c-.1.2-.3.3-.4.4v-3.7Z"/>
      </g>
    </g>
  </g>
  <g class="cls-15">
    <circle class="cls-6" cx="37.5" cy="37.5" r="37.5"/>
  </g>
  <path class="cls-7" d="M37.5,3c19,0,34.5,15.5,34.5,34.5s-15.5,34.5-34.5,34.5S3,56.5,3,37.5,18.5,3,37.5,3M37.5,0C16.8,0,0,16.8,0,37.5s16.8,37.5,37.5,37.5,37.5-16.8,37.5-37.5S58.2,0,37.5,0h0Z"/>
  <g>
    <g>
      <path class="cls-6" d="M32.9,47.1c-.8,0-1.5-.3-2.1-.8-.6-.5-.9-1.2-.9-2v-1.9c0,.1-.2.2-.2.3-.9,1.1-2.2,1.6-3.9,1.6s-2-.2-2.8-.7c-.8-.5-1.4-1.1-1.9-1.9-.4-.8-.7-1.7-.7-2.8s.1-1.5.3-2.1c.2-.5.4-1,.7-1.4-.2-.1-.4-.3-.6-.4-.5-.5-.8-1.2-.8-2.2s.3-1.7.8-2.2c.5-.5,1.1-.7,1.9-.7.2-.6.5-1,.8-1.2.5-.5,1.2-.7,2.1-.7s1.6.2,2.1.7c.3.2.6.6.7,1.2h.1c.5,0,1,0,1.4.3.1-.6.4-1.1.7-1.5.5-.6,1.3-.9,2.2-.9s1.6.3,2.1.9c.5.6.8,1.3.8,2.1v2.7c.3-.1.6-.2.9-.2.8,0,1.4.3,1.9.9.5.5.7,1.2.7,2.1s-.3,1.6-.8,2.1c-.5.5-1.1.8-1.8.8s-.6,0-.9-.2v5.3c0,.8-.3,1.5-.8,2-.5.5-1.3.8-2.1.8ZM24.7,35.8s-.1.2-.1,1,.1,1.1.1,1.1c0,0,0,0,.2,0s.2,0,.2,0c0,0,.1-.3.1-1.1s-.1-1-.1-1c0,0,0,0-.2,0s-.2,0-.2,0h0Z"/>
      <path class="cls-7" d="M32.9,28.9c.6,0,1,.2,1.4.6.3.4.5.9.5,1.4v4.8h.3c.1-.3.3-.7.6-.9.3-.3.6-.4,1-.4s.9.2,1.2.5c.3.4.5.8.5,1.4s-.2,1.1-.5,1.4c-.3.3-.7.5-1.1.5s-.6,0-.9-.3c-.2-.2-.4-.4-.6-.7,0-.1-.1-.2-.2-.2s0,0,0,0c-.1,0-.2.2-.2.3v6.9c0,.5-.2.9-.5,1.3-.4.3-.8.5-1.4.5s-1-.2-1.4-.5c-.4-.3-.6-.8-.6-1.3v-13.5c0-.5.2-1,.5-1.4.4-.4.8-.6,1.5-.6M25.6,29c.6,0,1.1.1,1.5.4.3.3.5.7.5,1.3v.2h1c.6,0,1,.1,1.4.4.3.3.5.8.5,1.5s-.2,1.1-.5,1.4c-.3.3-.8.5-1.4.5h-.1c.1.1.3.3.6.6.2.3.5.7.6,1.2.2.5.3,1.2.3,2.1,0,1.5-.4,2.6-1.1,3.4-.7.8-1.8,1.3-3.1,1.3s-1.6-.2-2.3-.5c-.6-.4-1.2-.9-1.5-1.5-.4-.7-.5-1.4-.5-2.3s0-1.3.3-1.8c.2-.5.4-1,.7-1.3s.5-.6.8-.7l-.2-.4h-.2c-.5,0-1-.2-1.3-.5-.3-.3-.5-.8-.5-1.5s.2-1.1.5-1.5c.3-.3.7-.4,1.3-.4h.8v-.2c0-.5.2-1,.5-1.3.3-.3.8-.4,1.4-.4M25,38.9c.5,0,.8-.2,1-.5s.3-.9.3-1.7-.1-1.3-.3-1.6c-.2-.3-.5-.5-1-.5s-.8.1-1,.4c-.2.3-.3.8-.3,1.6s.1,1.4.3,1.7c.2.3.5.5,1,.5M32.9,26.9c-1.5,0-2.4.6-2.9,1.2-.3.3-.5.6-.7.9,0,0,0,0-.1,0-.2-.4-.5-.8-.8-1-.7-.6-1.6-1-2.8-1s-2,.3-2.7.9c-.3.2-.6.6-.8,1.1-.9.2-1.5.6-1.9.9-.7.7-1.1,1.7-1.1,2.9s.4,2.2,1.1,2.9c-.1.2-.2.5-.3.8-.3.7-.4,1.6-.4,2.5s.3,2.3.8,3.3c.5,1,1.3,1.8,2.3,2.3.9.5,2,.8,3.2.8s2.3-.3,3.1-.7c0,1,.5,1.8,1.2,2.5.7.7,1.7,1.1,2.8,1.1s2-.4,2.8-1.1c.7-.7,1.1-1.7,1.1-2.7v-4.1c.9,0,1.8-.4,2.5-1.1.5-.5,1-1.4,1-2.8s-.5-2.2-.9-2.7c-.7-.8-1.6-1.2-2.6-1.2v-1.5c0-1.1-.4-2-1-2.7-.7-.8-1.7-1.2-2.9-1.2h0Z"/>
    </g>
    <g>
      <path class="cls-6" d="M44.4,47.3c-.9,0-1.7-.1-2.4-.3-.8-.3-1.4-.7-1.9-1.5-.4-.7-.5-1.5-.5-2.6,0-.9.3-1.6.7-2.1,0,0,0,0,0,0-.8,0-1.4-.4-1.8-.8-.5-.5-.7-1.2-.7-2,0-1.1.5-1.9,1.4-2.3-.3-.3-.5-.7-.6-1.1-.3-1-.2-1.9.4-2.6,0,0,0,0,0-.1-.2-.3-.3-.7-.3-1.3s.3-1.5,1.5-2.1c.8-.4,2-.6,3.6-.6s1.9.1,2.7.4c.9.3,1.6.8,2.1,1.5,0,0,0,0,0,.1.1-.6.4-1,.8-1.4.6-.5,1.3-.8,2.2-.8s1.8.5,2.1.8c.5.5.8,1.3.8,2.1v9.2c0,.8-.3,1.5-.9,2,0,0-.1.1-.2.2,0,0,0,0,0,0,.6.5.9,1.3.9,2.3s-.3,1.7-.9,2.2c-.5.5-1.3.7-2.1.7h-7.4ZM46.9,41.4c-.1-.1-.2-.3-.3-.4,0,.2-.2.3-.3.4h.5ZM48.6,35.5c.1,0,.2,0,.3.1,0,0,0,0,0,0v-.6c-.1.1-.2.3-.4.4Z"/>
      <path class="cls-7" d="M52,28.7c.6,0,1.1.2,1.4.5.3.4.5.8.5,1.4v9.2c0,.5-.2,1-.5,1.3-.4.3-.8.5-1.4.5s-1.3-.2-1.6-.7c-.2,0-.4.2-.6.2s-.4.1-.6.1c0,0-.2,0-.3,0-.3,0-.6,0-.9-.2-.4-.2-.6-.5-.7-1,0-.2,0-.3,0-.5-.2,0-.5,0-.7,0-.3,0-.5,0-.8,0,0,.5-.1,1-.5,1.3-.4.3-.9.5-1.5.5,0,0,.1.1.1.2,0,0,0,.2,0,.3,0,.1,0,.3.2.3s.3.1.6.1h7c.6,0,1.1.1,1.5.4.4.3.5.8.5,1.5s-.2,1.2-.5,1.5c-.4.3-.9.5-1.5.5h-7.4c-.8,0-1.5,0-2.1-.3-.6-.2-1-.5-1.3-1-.3-.5-.4-1.2-.3-2.1,0-.7.2-1.2.5-1.6.3-.3.7-.5,1.2-.5-.2-.3-.4-.6-.4-.9v-.3h-1.2c-.6,0-1.1-.2-1.4-.6-.3-.3-.4-.8-.4-1.3,0-1.1.6-1.6,1.8-1.6s.1,0,.2,0c.4,0,.8,0,1.3,0s1.1,0,1.7,0c.6,0,1.2,0,1.7,0,.6,0,1,0,1.4,0,0,0,0,0,0,0,.4,0,.8,0,1.1.2.3.2.5.5.6,1.1,0,.3,0,.5,0,.7.2,0,.4,0,.5,0,.1,0,.3,0,.4,0v-7.5c0-.5.2-1,.5-1.3.4-.4.8-.5,1.5-.5M44.1,28.9c.9,0,1.7.1,2.4.4.7.3,1.2.6,1.6,1.2.4.5.6,1.2.6,2,0,1.2-.4,2.1-1.1,2.6s-1.9.8-3.5.8-1.4,0-2-.1c-.6,0-1.1-.2-1.5-.5-.4-.2-.7-.6-.8-1-.2-.7-.1-1.3.2-1.7.3-.4.7-.6,1.2-.7h0c-.3,0-.6-.2-.9-.4-.2-.2-.4-.5-.4-.9s.3-.9,1-1.2c.7-.3,1.7-.5,3.2-.5M43.5,32.6c.8,0,1.2,0,1.5,0,.2,0,.3-.2.3-.3s-.1-.3-.3-.4c-.2,0-.7,0-1.5,0s-1.2,0-1.5,0c-.2,0-.3.2-.3.4s.1.3.3.3c.2,0,.7,0,1.5,0M52,26.7c-1.4,0-2.3.6-2.9,1.1-.1.1-.3.3-.4.4-.4-.3-1-.6-1.5-.8-.9-.3-2-.5-3.1-.5-1.8,0-3.1.2-4.1.7-1.9.9-2.1,2.4-2.1,3s0,.8.2,1.2c-.4.7-.6,1.7-.3,3,0,.2.1.4.2.6-.6.6-1,1.5-1,2.5,0,1.4.5,2.2,1,2.7.3.3.6.6,1,.7-.2.4-.2.9-.3,1.5,0,1.3,0,2.4.6,3.2.5.9,1.4,1.6,2.4,1.9.8.2,1.6.4,2.7.4h7.4c1.1,0,2.1-.3,2.8-1,.6-.5,1.2-1.4,1.2-3s-.3-1.8-.6-2.3c.5-.6.7-1.4.7-2.2v-9.2c0-1.1-.4-2.1-1.1-2.8-.5-.5-1.4-1.1-2.8-1.1h0Z"/>
    </g>
  </g>
</svg>