<?xml version="1.0" encoding="UTF-8"?>
<svg xmlns="http://www.w3.org/2000/svg" version="1.1" viewBox="0 0 163.5 40">
  <defs>
    <style>
      .cls-1 {
        fill: #1fd4a2;
      }

      .cls-2 {
        fill: #f6cb5a;
      }

      .cls-3 {
        fill: #f68e8d;
      }

      .cls-4 {
        fill: #61b3ff;
      }

      .cls-5 {
        fill: none;
        stroke: #f6cb5a;
        stroke-linecap: round;
        stroke-linejoin: round;
        stroke-width: 6px;
      }
    </style>
  </defs>
  <!-- Generator: Adobe Illustrator 28.7.0, SVG Export Plug-In . SVG Version: 1.2.0 Build 136)  -->
  <g>
    <g id="_레이어_1">
      <path class="cls-3" d="M54.5,34.3c-1.3,0-2.4-.4-3.2-1.2s-1.2-1.8-1.2-2.9v-14.9c0-1.3.4-2.3,1.1-3.2.8-.9,1.9-1.3,3.3-1.3s2.4.4,3.1,1.3c.7.9,1,2,1,3.3v2.2h.8c0-2.5.5-4.3,1.6-5.3s2.4-1.5,4-1.5,3.5.6,4.5,1.9c1,1.3,1.4,2.9,1.4,4.9h.8c0-1.7.3-3.1.9-4,.6-1,1.3-1.7,2.2-2.1s1.8-.7,2.8-.7c1.9,0,3.4.5,4.3,1.4s1.5,2.2,1.8,3.7c.3,1.6.4,3.3.4,5.3v9c0,1.2-.4,2.2-1.2,2.9-.8.8-1.9,1.2-3.2,1.2s-2.4-.4-3.2-1.2c-.8-.8-1.2-1.8-1.2-2.9v-8c0-1.1,0-1.9-.4-2.5s-.8-.9-1.6-.9-1.4.3-1.7,1c-.3.7-.4,1.5-.4,2.5v7.9c0,1.2-.4,2.2-1.1,2.9-.7.8-1.8,1.2-3.1,1.2s-2.4-.4-3.2-1.2-1.2-1.8-1.2-2.9v-8c0-1.1,0-1.9-.4-2.5-.3-.6-.8-.9-1.6-.9s-1.4.3-1.6,1c-.2.7-.3,1.5-.3,2.5v7.9c0,1.2-.4,2.2-1.1,2.9-.7.8-1.7,1.2-3.1,1.2h0Z"/>
      <path class="cls-2" d="M85.2,22.6c0-2.4.5-4.5,1.4-6.3s2.3-3.2,4-4.2c1.8-1,3.8-1.5,6.3-1.5s3.6.3,5.1,1,2.7,1.6,3.6,2.8,1.3,2.4,1.3,3.8-.4,2.5-1.3,3.1c-.8.6-2.1.9-3.7.9h-9.4c0,.8.3,1.4.9,1.9s1.7.8,3.1.8,1.4,0,2.1-.2c.6-.1,1.3-.3,2-.4s1.4-.2,2.3-.2,2.2.4,3,1.3,1.2,2,1.2,3.5-.9,3.1-2.7,4.1c-1.8,1-4.2,1.5-7.1,1.5s-4-.4-5.8-1.2-3.3-2.1-4.4-3.8-1.7-4-1.7-6.8h-.2ZM99.7,20.6c.5,0,.6-.2.5-.6s-.5-.9-1.1-1.3c-.6-.5-1.5-.7-2.6-.7s-2.3.3-2.9.9-1,1.2-1,1.8h7.2,0Z"/>
      <path class="cls-2" d="M108,22.6c0-2.4.5-4.5,1.4-6.3.9-1.8,2.3-3.2,4-4.2,1.8-1,3.8-1.5,6.3-1.5s3.6.3,5.1,1,2.7,1.6,3.6,2.8,1.3,2.4,1.3,3.8-.4,2.5-1.3,3.1c-.8.6-2.1.9-3.7.9h-9.4c0,.8.3,1.4.9,1.9s1.7.8,3.1.8,1.4,0,2.1-.2c.6-.1,1.3-.3,2-.4s1.4-.2,2.3-.2,2.2.4,3,1.3,1.2,2,1.2,3.5-.9,3.1-2.7,4.1-4.2,1.5-7.1,1.5-4-.4-5.8-1.2-3.3-2.1-4.4-3.8c-1.1-1.8-1.7-4-1.7-6.8h-.2ZM122.6,20.6c.4,0,.6-.2.4-.6,0-.4-.5-.9-1.1-1.3-.6-.5-1.5-.7-2.6-.7s-2.3.3-2.9.9-1,1.2-1,1.8h7.2Z"/>
      <path class="cls-1" d="M144.3,34.4c-1.6,0-3-.4-4.3-1.1s-2.3-1.7-3-3.1c-.7-1.3-1.1-2.9-1.1-4.7v-7.9l-1.7.2c-.9.1-1.7-.2-2.4-.9-.7-.7-1-1.7-1-2.8s.3-2.1,1-2.8c.7-.7,1.5-1,2.4-.9l1.7.2v-3.1c0-1.2.3-2.2,1-2.9.7-.7,1.8-1.1,3.1-1.1s2.4.4,3.2,1.1c.7.7,1.1,1.7,1,2.9v3.1l2.3-.3c1.6-.2,2.8,0,3.7.9.8.8,1.3,1.8,1.3,2.9s-.4,2.1-1.2,2.9-2,1.1-3.6.9l-2.5-.3v6.7c0,.4.1.7.4,1.1.3.3.6.4,1,.3s.9-.4,1.4-.8,1.1-.6,1.9-.6c1.2,0,2.1.4,2.7,1.3.6.8.9,1.9.9,3.1s-.3,1.9-1,2.8-1.6,1.6-2.9,2.1c-1.2.5-2.7.8-4.4.8h.1Z"/>
      <path class="cls-4" d="M1,8c0-1.3.4-2.3,1.2-3.1.8-.8,1.9-1.2,3.3-1.2s2.6.4,3.4,1.2c.7.8,1.1,1.8,1.1,3.1s-.4,2.3-1.1,3c-.7.8-1.9,1.1-3.4,1.1s-2.6-.4-3.4-1.1-1.1-1.8-1.1-3ZM5.5,36.7c-1.4,0-2.5-.4-3.1-1.2-.7-.8-1-1.8-1-2.9v-15.4c0-1.3.3-2.3,1-3.1.7-.7,1.7-1.1,3.1-1.1s2.5.4,3.2,1.1c.7.8,1.1,1.7,1.1,3v15.5c0,1.2-.4,2.1-1.1,2.9-.7.8-1.8,1.2-3.1,1.2h0Z"/>
      <path class="cls-5" d="M19.2,22.2s3.2,1.5,10.9,1.5,10.6-1.5,10.6-1.5"/>
      <path class="cls-2" d="M162.2,7.1l1,.8c.6.5.4,1.4-.4,1.6l-1.3.3c-.3,0-.5.3-.6.5l-.5,1.2c-.3.7-1.2.8-1.6.1l-.7-1.1c-.2-.3-.4-.4-.7-.4h-1.3c-.7-.1-1.1-1-.6-1.6l.9-1c.2-.2.3-.5.2-.8l-.3-1.3c-.2-.7.5-1.4,1.2-1.1l1.2.5c.3,0,.6,0,.8,0l1.1-.7c.6-.4,1.5,0,1.4.8v1.3c-.1.3,0,.6.2.8h0Z"/>
    </g>
  </g>
</svg>