<?xml version="1.0" encoding="UTF-8"?>
<svg id="_레이어_1" data-name="레이어_1" xmlns="http://www.w3.org/2000/svg" viewBox="0 0 204.2 40">
  <defs>
    <style>
      .cls-1 {
        fill: #fffad7;
      }

      .cls-2 {
        stroke: #ef8825;
        stroke-width: 6px;
      }

      .cls-2, .cls-3, .cls-4, .cls-5 {
        fill: none;
        stroke-miterlimit: 10;
      }

      .cls-2, .cls-4, .cls-5 {
        stroke-linecap: round;
      }

      .cls-3, .cls-4 {
        stroke-width: 4px;
      }

      .cls-3, .cls-5 {
        stroke: #f68e8d;
      }

      .cls-6 {
        fill: #fff;
      }

      .cls-4 {
        stroke: #f9ddca;
      }

      .cls-7 {
        fill: #ffd252;
      }

      .cls-8 {
        fill: #f68e8d;
      }

      .cls-9 {
        fill: #61b3ff;
      }

      .cls-10 {
        fill: #ef8825;
      }

      .cls-11 {
        fill: #d4eaff;
      }

      .cls-12 {
        fill: #2d9b7d;
      }

      .cls-13 {
        fill: #f8b8b0;
        opacity: .4;
      }

      .cls-14 {
        fill: #397ef6;
      }

      .cls-15 {
        fill: #26120d;
      }

      .cls-16 {
        fill: #80513f;
      }

      .cls-17 {
        fill: #f9e6d7;
      }
    </style>
  </defs>
  <path class="cls-1" d="M202.5,25.4c-6.7,10.5-17.4,14.2-25.1,11.1-7.6-3.2-4.6-18.4,5.1-20s18.1,1.4,20,5.9c.8,1.9,0,3,0,3Z"/>
  <path class="cls-11" d="M48.8,2.9c-12,.7-37.5,7.1-36.4,16.4s12,21.6,27.6,15.8c15.6-5.8,21.5-17.1,31.2-18.7s18.1-3.1,17.5-8.5c-1.1-9.1-39.8-5.1-39.8-5.1Z"/>
  <g>
    <g>
      <path class="cls-17" d="M32.1,13c0,5.3-5.6,7.8-12.5,7.8s-12.5-2.5-12.5-7.8S12.7,2.9,19.6,2.9s12.5,4.8,12.5,10.1Z"/>
      <circle class="cls-17" cx="7.1" cy="10.5" r="2.4"/>
      <circle class="cls-17" cx="32.1" cy="10.5" r="2.4"/>
    </g>
    <g>
      <ellipse class="cls-15" cx="14.8" cy="12.4" rx="1.1" ry="1.2"/>
      <ellipse class="cls-15" cx="24.4" cy="12.4" rx="1.1" ry="1.2"/>
    </g>
    <path class="cls-5" d="M17.2,15.5s2.1,2.9,4.8,0"/>
    <path class="cls-16" d="M29.2,3.3C25.7-.2,19.6,0,19.6,0,19.6,0,13.4-.2,9.9,3.3c-2.9,2.9-3.1,4.8-2.9,5.8s.4.6.7.6h3.9c.2,0,.3,0,.5-.2l.7-.6c.3-.2.7-.2,1,0l.7.6c.1.1.3.2.5.2h2c.2,0,.4,0,.5-.2l1.2-1c.3-.2.7-.2,1,0l1.2,1c.1.1.3.2.5.2h2c.2,0,.3,0,.5-.2l.7-.6c.3-.2.7-.2,1,0l.7.6c.1.1.3.2.5.2h4.7c.4,0,.7-.3.7-.6.1-.9,0-2.9-2.9-5.8Z"/>
    <g>
      <circle class="cls-13" cx="12.1" cy="15.8" r="2.9"/>
      <circle class="cls-13" cx="27" cy="15.8" r="2.9"/>
    </g>
    <circle class="cls-16" cx="9.9" cy="3.8" r="3"/>
    <circle class="cls-16" cx="29.5" cy="3.8" r="3"/>
  </g>
  <g>
    <line class="cls-4" x1="30.3" y1="18.9" x2="32.9" y2="14.4"/>
    <line class="cls-3" x1="30.3" y1="18.9" x2="32.3" y2="15.4"/>
  </g>
  <rect class="cls-7" x="0" y="17.1" width="40" height="20" rx="5" ry="5"/>
  <circle class="cls-8" cx="10.7" cy="36.2" r="3.8"/>
  <circle class="cls-6" cx="10.7" cy="36.2" r="1.8"/>
  <circle class="cls-8" cx="29.3" cy="36.2" r="3.8"/>
  <circle class="cls-6" cx="29.3" cy="36.2" r="1.8"/>
  <rect class="cls-9" x="3.9" y="21.2" width="6" height="8" rx="2" ry="2"/>
  <rect class="cls-9" x="22.9" y="21.2" width="6" height="8" rx="2" ry="2"/>
  <rect class="cls-9" x="15.9" y="21.2" width="6" height="8" rx="2" ry="2"/>
  <rect class="cls-9" x="29.9" y="21.2" width="6" height="8" rx="2" ry="2"/>
  <path class="cls-14" d="M47.2,23c0-1.8.2-3.3.7-4.5.5-1.2,1.1-2.1,1.8-2.7.7-.6,1.4-1,2-1.2l-.4-1c-.8,0-1.5-.3-2.1-1-.7-.6-1.1-1.6-1.1-2.7-.1-1.9.6-3.4,2-4.6,1.5-1.2,3.7-1.8,6.7-1.8s6.1,1.2,8.1,3.5c2,2.4,3.1,6,3.1,11s-.4,6.2-1.3,8.3c-.9,2.1-2.1,3.7-3.7,4.7-1.6,1-3.4,1.5-5.6,1.5s-3.2-.3-4.7-1c-1.5-.7-2.7-1.8-3.7-3.2-1-1.4-1.5-3.3-1.6-5.5ZM56.3,22.6c1.1,0,2-.4,2.6-1.1.6-.7.9-2,.9-3.9s-.3-3.3-.9-4c-.6-.7-1.5-1.1-2.6-1.1s-2.1.4-2.7,1.1c-.6.7-.9,2.1-.9,4s.3,3.1.9,3.9c.6.8,1.5,1.1,2.7,1.1ZM69.4,5.2c0-1.2.4-2.3,1.2-3.1.8-.8,1.9-1.3,3.3-1.3s2.4.4,3.2,1.3,1.2,1.9,1.2,3.2v10.9l.7.2c.2-1,.7-1.8,1.3-2.4.6-.6,1.4-.9,2.3-.9s1.9.4,2.6,1.2c.7.8,1,1.9,1,3.2s-.4,2.5-1.1,3.2c-.8.8-1.6,1.1-2.5,1.1s-1.4-.2-2-.6c-.5-.4-.9-.9-1.2-1.5-.2-.4-.4-.5-.7-.4-.3.1-.4.4-.4.8v15.4c0,1.1-.4,2.1-1.2,2.9-.8.8-1.9,1.2-3.1,1.2s-2.4-.4-3.2-1.2c-.9-.8-1.3-1.7-1.3-2.9V5.2Z"/>
  <path class="cls-8" d="M88.4,23c0-1.8.2-3.3.7-4.5s1.1-2.1,1.9-2.7c.7-.6,1.4-1,2-1.2l-.5-1c-.7,0-1.5-.3-2.2-1-.7-.6-1.1-1.6-1.2-2.7-.1-1.9.6-3.4,2.1-4.6,1.5-1.2,3.8-1.8,6.9-1.8s6.3,1.2,8.4,3.5c2.1,2.4,3.2,6,3.2,11s-.5,6.2-1.4,8.3c-.9,2.1-2.2,3.7-3.8,4.7-1.6,1-3.6,1.5-5.8,1.5s-3.4-.3-4.9-1c-1.6-.7-2.9-1.8-3.9-3.2-1-1.4-1.6-3.3-1.6-5.5ZM97.8,22.6c1.3,0,2.2-.4,2.8-1.1.6-.7.9-2,.9-3.9s-.3-3.3-.9-4c-.6-.7-1.6-1.1-2.8-1.1s-2.2.4-2.8,1.1c-.6.7-.9,2.1-.9,4s.3,3.1.9,3.9c.6.8,1.5,1.1,2.8,1.1ZM112.4,5.2c0-1.2.4-2.3,1.2-3.1.8-.8,1.9-1.3,3.3-1.3s2.4.4,3.2,1.3,1.1,1.9,1.1,3.2v30.3c0,1.1-.4,2.1-1.2,2.9-.8.8-1.8,1.2-3.1,1.2s-2.4-.4-3.2-1.2c-.9-.8-1.3-1.7-1.3-2.9V5.2Z"/>
  <path class="cls-12" d="M159.4,6.5c0-1.3.3-2.3.9-3.1.6-.8,1.6-1.3,2.8-1.3h10.3c2.1,0,3.7.5,4.7,1.3,1,.9,1.5,2.4,1.5,4.4v9.6c0,2.1-.5,3.7-1.5,4.8-1,1.1-2.5,1.7-4.7,1.7h-6.3c-2.5,0-4.4-.6-5.6-1.9-1.2-1.3-1.9-2.9-1.9-4.8s.2-2.2.6-2.9c.4-.8.8-1.4,1.3-1.9.5-.5.9-.7,1.3-.8l-.4-.9c-2-.3-3.1-1.8-3.1-4.3ZM162.9,36.4c-.5-1.3-.5-2.6,0-3.8.6-1.2,1.8-2.2,3.7-3.1,1.5-.7,2.8-1.3,3.9-1.8s2.2-1.1,3.5-1.7c1.5-.7,2.7-1.3,3.8-1.8s2.1-.7,3.1-.7,1.6.2,2.1.7c.6.4,1,1,1.3,1.6.3.6.5,1.3.5,1.9,0,1,0,1.9-.5,2.6-.4.7-1,1.3-1.7,1.7l1.2,1.1c.5-.9,1.2-1.6,2.1-2.2.9-.6,1.9-.9,3-.9s2.7.5,3.6,1.4c.9,1,1.3,2.2,1.3,3.6s-.4,2.5-1.3,3.5c-.9.9-2,1.4-3.6,1.4s-2.3-.3-3.1-.9c-.8-.6-1.5-1.2-2-1.8-.7-.8-1.3-1.5-1.9-2-.6-.5-1.2-.7-1.9-.7-.9,0-2,.3-3.2.9-1.2.6-2.7,1.4-4.3,2.4-1.3.8-2.6,1.4-3.9,1.7-1.2.3-2.4.3-3.3-.1-1-.4-1.7-1.4-2.3-2.8ZM164.3,12.9c.2.4.5.7.7.9.3.2.8.2,1.4.2h4.7c.5,0,.8,0,1-.2.2-.1.2-.4.2-.7v-1.4c0-.4,0-.6-.2-.7-.2-.1-.5-.2-1-.2h-6.5c-.4,0-.7.1-.8.4-.1.2-.1.5,0,.9l.4.9ZM187.8,24.8c-1.3,0-2.4-.4-3.2-1.1s-1.3-1.7-1.3-2.9V5.1c0-1.2.4-2.2,1.2-3s1.9-1.1,3.3-1.1,2.4.4,3.2,1.2c.8.8,1.1,1.8,1.1,3.1v15.5c0,1.2-.4,2.1-1.2,2.9s-1.8,1.1-3.1,1.1Z"/>
  <path class="cls-2" d="M130.1,23.3s3.2,1.5,10.9,1.5,10.6-1.5,10.6-1.5"/>
  <path class="cls-10" d="M202.8,6.4l1,.8c.6.5.4,1.4-.4,1.6l-1.3.3c-.3,0-.5.3-.6.5l-.5,1.2c-.3.7-1.2.8-1.6.1l-.7-1.1c-.2-.3-.4-.4-.7-.4h-1.3c-.7-.1-1.1-1-.6-1.6l.9-1c.2-.2.3-.5.2-.8l-.3-1.3c-.2-.7.5-1.4,1.2-1.1l1.2.5c.3.1.6,0,.8,0l1.1-.7c.6-.4,1.5,0,1.4.8v1.3c-.1.3,0,.6.2.8Z"/>
</svg>