<?xml version="1.0" encoding="UTF-8"?>
<svg id="_레이어_5" data-name="레이어_5" xmlns="http://www.w3.org/2000/svg" viewBox="0 0 35 35">
  <defs>
    <style>
      .cls-1 {
        fill: #fff;
      }

      .cls-2 {
        fill: #0080f8;
      }

      .cls-3 {
        fill: none;
        stroke: #fff;
        stroke-linecap: round;
        stroke-miterlimit: 10;
        stroke-width: 2px;
      }
    </style>
  </defs>
  <g>
    <path class="cls-2" d="M33.3,20.8c-2.2-2.2-2.1-3.1-4-12.1C27.5-.2,17.5,0,17.5,0,17.5,0,7.5-.2,5.6,8.8c-1.9,9-1.8,9.9-4,12.1-1.9,1.9-1.7,4.9-1.7,4.9,0,0,.5,4.5,6.2,4.4,6.9-.2,11.3.1,11.3.1,0,0,4.4-.3,11.3-.1,5.7.1,6.2-4.4,6.2-4.4,0,0,.3-2.9-1.7-4.9Z"/>
    <path class="cls-2" d="M10.3,27.2s0,7.8,7,7.8,7.4-7.8,7.4-7.8h-14.4Z"/>
  </g>
  <g>
    <path class="cls-3" d="M21.6,4.2s4.1,1.5,4.2,7"/>
    <g>
      <circle class="cls-1" cx="11.9" cy="18.6" r="2"/>
      <circle class="cls-1" cx="23.1" cy="18.6" r="2"/>
    </g>
    <path class="cls-3" d="M14.7,23.4s2.8,2.4,5.5,0"/>
    <path class="cls-1" d="M14.5,29.8s0,2.4,2.9,2.4,3-2.4,3-2.4h-5.9Z"/>
  </g>
</svg>