<?xml version="1.0" encoding="UTF-8"?>
<svg id="_레이어_2" data-name="레이어_2" xmlns="http://www.w3.org/2000/svg" viewBox="0 0 35 35">
  <defs>
    <style>
      .cls-1 {
        fill: #fff;
      }

      .cls-2 {
        fill: #fe8a8b;
      }
    </style>
  </defs>
  <g>
    <rect class="cls-2" x="0" y="5.3" width="35" height="29.7" rx="7" ry="7"/>
    <g>
      <rect class="cls-2" x="5.7" y="0" width="6" height="9.4" rx="3" ry="3"/>
      <rect class="cls-2" x="23.3" y="0" width="6" height="9.4" rx="3" ry="3" transform="translate(52.7 9.4) rotate(180)"/>
    </g>
  </g>
  <g>
    <path class="cls-1" d="M3.3,13.4h28.4v13.5c0,2.7-2.2,4.9-4.9,4.9H8.2c-2.7,0-4.9-2.2-4.9-4.9v-13.5h0Z"/>
    <circle class="cls-1" cx="14.1" cy="9.4" r="1.5"/>
    <circle class="cls-1" cx="20.7" cy="9.4" r="1.5"/>
  </g>
  <path class="cls-2" d="M17.9,26.3l2.4,1.7c.7.5,1.6-.2,1.3-1l-.9-2.8c0-.3,0-.6.2-.7l2.4-1.7c.7-.5.3-1.6-.5-1.6h-2.9c-.3,0-.5-.2-.6-.5l-.9-2.8c-.3-.8-1.4-.8-1.7,0l-.9,2.8c0,.3-.3.5-.6.5h-2.9c-.8,0-1.2,1.1-.5,1.6l2.4,1.7c.2.2.3.5.2.7l-.9,2.8c-.3.8.7,1.5,1.3,1l2.4-1.7c.2-.2.5-.2.8,0Z"/>
</svg>