<?xml version="1.0" encoding="UTF-8"?>
<svg id="_레이어_1" data-name="레이어_1" xmlns="http://www.w3.org/2000/svg" viewBox="0 0 35 35">
  <defs>
    <style>
      .cls-1 {
        fill: #fff;
      }

      .cls-2 {
        fill: #f88415;
      }

      .cls-3 {
        fill: none;
        stroke: #fff;
        stroke-linecap: round;
        stroke-miterlimit: 10;
        stroke-width: 2.1px;
      }
    </style>
  </defs>
  <g>
    <path class="cls-2" d="M7,0h21c3.9,0,7,3.1,7,7v17.9c0,2.8-2.3,5.1-5.1,5.1H5.1c-2.8,0-5.1-2.3-5.1-5.1V7C0,3.1,3.1,0,7,0Z"/>
    <g>
      <rect class="cls-2" x="3.9" y="25.7" width="7.2" height="9.3" rx="3.6" ry="3.6"/>
      <rect class="cls-2" x="23.9" y="25.7" width="7.2" height="9.3" rx="3.6" ry="3.6" transform="translate(55 60.7) rotate(180)"/>
    </g>
  </g>
  <g>
    <rect class="cls-1" x="3.1" y="3.1" width="28.7" height="15.8" rx="5.1" ry="5.1"/>
    <circle class="cls-1" cx="7.5" cy="24" r="2.8"/>
    <circle class="cls-1" cx="27.5" cy="24" r="2.8"/>
    <path class="cls-3" d="M14.3,25.7s.4,1.6,3.3,1.6,3.1-1.6,3.1-1.6"/>
  </g>
</svg>